<svg width="204" height="93" viewBox="0 0 204 93" fill="none" xmlns="http://www.w3.org/2000/svg">
<path d="M0.0314785 83.3242C-0.0726719 83.6677 0.121396 84.0306 0.46494 84.1348C0.808485 84.2389 1.17141 84.0449 1.27556 83.7013L0.653521 83.5127L0.0314785 83.3242ZM48.6796 47.1033L48.9786 47.6804L48.6796 47.1033ZM72.2243 20.5657C72.466 20.3003 72.4469 19.8892 72.1815 19.6474L67.8567 15.708C67.5913 15.4663 67.1802 15.4855 66.9385 15.7509C66.6967 16.0162 66.7159 16.4274 66.9813 16.6691L70.8255 20.1708L67.3238 24.015C67.0821 24.2804 67.1013 24.6915 67.3667 24.9333C67.6321 25.175 68.0432 25.1558 68.2849 24.8904L72.2243 20.5657ZM0.653521 83.5127L1.27556 83.7013C8.24224 60.7214 23.0236 50.2413 34.5655 46.2381C40.359 44.2286 45.2951 43.8649 48.0046 44.3371C48.6794 44.4547 49.1806 44.6183 49.5134 44.797C49.8589 44.9827 49.9291 45.1313 49.9402 45.1749C49.944 45.1899 49.9735 45.3079 49.744 45.5702C49.5122 45.8352 49.0819 46.1628 48.3806 46.5261L48.6796 47.1033L48.9786 47.6804C49.7476 47.282 50.3386 46.865 50.7225 46.4261C51.1088 45.9845 51.3484 45.4393 51.2003 44.8553C51.0594 44.2998 50.6156 43.9135 50.1286 43.6518C49.6288 43.3833 48.979 43.1873 48.2277 43.0564C45.2329 42.5345 40.0647 42.9547 34.1395 45.0099C22.2439 49.1357 7.13057 59.9075 0.0314785 83.3242L0.653521 83.5127ZM48.6796 47.1033L48.3806 46.5261C47.5171 46.9735 46.884 46.9204 46.4204 46.6463C45.9198 46.3503 45.4649 45.7083 45.1811 44.6838C44.6156 42.6421 44.8356 39.4261 46.2678 35.9726C49.1081 29.1239 56.6689 21.4816 71.7741 20.7773L71.7438 20.128L71.7135 19.4787C56.1212 20.2058 48.1062 28.1461 45.067 35.4746C43.5594 39.1097 43.2636 42.631 43.9283 45.0308C44.2596 46.2269 44.8562 47.2317 45.7588 47.7653C46.6984 48.3209 47.8202 48.2806 48.9786 47.6804L48.6796 47.1033Z" fill="#146EF5"/>
</svg>
